Coordinates
version=1
nRows=12
nColumns=28
inDegrees=yes

Units are S.I. units (second, meters, Newtons, ...)
Angles are in degrees.

endheader
time	pelvis_tilt	pelvis_list	pelvis_rotation	pelvis_tx	pelvis_ty	pelvis_tz	hip_flexion_r	hip_adduction_r	hip_rotation_r	knee_angle_r	ankle_angle_r	subtalar_angle_r	mtp_angle_r	hip_flexion_l	hip_adduction_l	hip_rotation_l	knee_angle_l	socket_flexion	socket_adduction	socket_rotation	socket_tx	socket_ty	socket_tz	foot_flex	lumbar_extension	lumbar_bending	lumbar_rotation
      0.31666667	      2.43380758	     -1.32583551	     -4.73774680	     -0.42044708	      1.03172520	      0.26593449	     14.73409014	      0.69164050	     -3.61254000	    -61.46994146	      4.72028460	    -19.37437693	      0.15984645	     -2.64358285	     -0.44707176	     -7.42498112	     -2.42607815	      1.01369393	      0.16086338	     15.82827235	     -0.00382112	     -0.00846850	     -0.00054368	     -0.57615621	    -12.14107333	     -2.01099659	      3.11499526
      0.32083333	      2.73202857	     -2.15984598	     -4.31590624	     -0.41442922	      1.03254104	      0.26541264	     14.50943135	      1.52534461	     -4.15416031	    -60.50717479	      5.96462380	    -18.47750605	     -0.46975873	     -3.63326326	     -1.65512040	     -7.38741652	     -2.25624555	      0.74689071	      0.52736648	     16.22391505	     -0.00619591	     -0.00945763	     -0.00373529	     -0.53274538	    -12.45636429	     -0.90775500	      2.37002136
      0.32500000	      2.77263914	     -2.16379385	     -4.23987000	     -0.40987648	      1.03291494	      0.26531934	     15.04568724	      1.54390053	     -4.21893563	    -60.05766805	      6.02710737	    -18.49136311	     -0.49330207	     -3.85697174	     -1.62883664	     -7.42218219	     -2.29891621	      0.78046456	      0.52931330	     16.26089213	     -0.00534648	     -0.00920341	     -0.00378390	     -0.47500787	    -12.66068568	     -0.91662727	      2.36999743
      0.32916667	      2.73836051	     -2.27154185	     -4.04908846	     -0.40409372	      1.03345629	      0.26493644	     15.36490032	      1.64636369	     -4.38998859	    -59.20749708	      6.31870986	    -18.55530162	     -0.60829557	     -4.29252387	     -1.61709419	     -7.43423671	     -2.20211720	      0.73395046	      0.39016784	     16.48348121	     -0.00596027	     -0.00883137	     -0.00249056	     -0.16524914	    -12.52602293	     -0.76655206	      2.34999220
      0.33333333	      3.08363305	     -2.97391248	     -3.69524002	     -0.39865134	      1.03414982	      0.26451414	     15.21371323	      2.31520316	     -4.93669039	    -58.30260483	      7.02767896	    -18.23115807	     -1.62442734	     -5.15919380	     -2.64142193	     -7.49621174	     -2.10061530	      0.53779812	      0.71281212	     16.77813887	     -0.00731076	     -0.00959149	     -0.00530596	     -0.17980682	    -12.98689254	      0.15856750	      1.85570355
      0.33750000	      3.11132375	     -2.95492296	     -3.64285486	     -0.39418810	      1.03436409	      0.26450600	     15.74260235	      2.30996696	     -4.97662666	    -57.77883388	      7.09698225	    -18.24832809	     -1.65089695	     -5.37049961	     -2.62272784	     -7.50759311	     -2.13659906	      0.56408672	      0.71847114	     16.83548395	     -0.00654619	     -0.00937517	     -0.00555052	     -0.11467642	    -13.19299422	      0.13890427	      1.85639877
      0.34166667	      3.07169608	     -2.99230848	     -3.48455802	     -0.38855615	      1.03485203	      0.26432604	     16.04179006	      2.36731033	     -5.07183935	    -56.82404240	      7.32951578	    -18.31831473	     -1.74935244	     -5.72279866	     -2.59982714	     -7.51977124	     -2.08169292	      0.53526381	      0.64604743	     17.00490670	     -0.00673615	     -0.00886753	     -0.00488346	      0.14050484	    -13.06820653	      0.16675075	      1.84888145
      0.34583333	      3.40854086	     -3.74081293	     -3.11280072	     -0.38314865	      1.03543299	      0.26400198	     15.83984320	      3.13088847	     -5.57878308	    -55.74667027	      7.89324680	    -18.23453553	     -3.08992852	     -6.60377210	     -3.72816197	     -7.56018117	     -1.96245997	      0.31851248	      0.98543968	     17.38046454	     -0.00842829	     -0.00969932	     -0.00782522	      0.21818717	    -13.51322564	      1.11688283	      1.41957407
      0.35000000	      3.39680127	     -3.71578231	     -3.05490787	     -0.37812232	      1.03567419	      0.26394077	     16.23958057	      3.09931463	     -5.66175290	    -54.94757513	      8.04023947	    -18.30615488	     -3.17707348	     -6.85935877	     -3.67235987	     -7.63126997	     -1.96957986	      0.32570956	      0.96855790	     17.41636354	     -0.00794019	     -0.00933487	     -0.00781216	      0.36087114	    -13.53261372	      1.09838387	      1.44100203
      0.35416667	      3.36570527	     -3.72981755	     -2.95764792	     -0.37297455	      1.03586847	      0.26381765	     16.61850387	      3.10300381	     -5.78592455	    -54.08882119	      8.22166152	    -18.38161391	     -3.27284286	     -7.16394785	     -3.65009685	     -7.66602040	     -1.92895001	      0.30001305	      0.92444573	     17.53501505	     -0.00794609	     -0.00899797	     -0.00749605	      0.49702825	    -13.52352200	      1.12398814	      1.44763905
      0.35833333	      3.33899095	     -3.77104339	     -2.84313463	     -0.36781621	      1.03598407	      0.26364592	     16.96789856	      3.11970060	     -5.95459767	    -53.18807861	      8.41498636	    -18.45459432	     -3.38231681	     -7.48673253	     -3.67203239	     -7.71324199	     -1.87987726	      0.26329672	      0.89101304	     17.65200020	     -0.00808818	     -0.00880149	     -0.00730993	      0.62401741	    -13.51169428	      1.19524529	      1.43504131
      0.36250000	      3.32124985	     -3.82688967	     -2.72417811	     -0.36267444	      1.03608999	      0.26351106	     17.28841405	      3.15341800	     -6.13843413	    -52.24601195	      8.60439028	    -18.51995106	     -3.50266292	     -7.81751309	     -3.73213919	     -7.75247791	     -1.83344383	      0.22165721	      0.88025721	     17.77438774	     -0.00824368	     -0.00862215	     -0.00730879	      0.74773918	    -13.51504098	      1.28549985	      1.40501547
